<svg width="224" height="224" viewBox="0 0 224 224" fill="none" xmlns="http://www.w3.org/2000/svg">
    <g clip-path="url(#apqtuvm4ba)">
        <path d="M224.008 206.847v17.24H0V0h224.008v206.847zm-17.233 0v-51.899h-17.24v51.899h17.24zm0-69.138v-51.52h-51.902v51.52h51.902zm0-68.76V51.71h-51.902v17.24h51.902zm0-34.47v-17.24h-51.902v17.24h51.902zM172.31 206.846v-51.899h-17.437v51.899h17.437zm-34.67-17.239v-34.683h-17.028v17.341h-17.027v17.342h34.055zm0-51.899v-51.52h-17.028v51.52h17.028zm0-86.11V17.24h-34.252v17.058l-.103.3h-17.13v34.352h34.457V51.607l17.028-.008zM103.388 171.99v-17.042H86.155v17.042h17.233zm0-34.281v-51.52H86.155v51.52h17.233zm-34.466 69.138v-51.899h-51.69v51.899h51.69zm0-69.138v-51.52H51.69v51.52h17.233zm0-68.76V34.597h-.141V17.255H51.69v51.71l17.233-.016zm-34.457 68.76v-51.52H17.233v51.52h17.232zm0-68.76V17.24H17.233v51.71h17.232z" fill="#1A1A1A"/>
        <path d="M206.767 154.949h-17.232v51.899h17.232v-51.899zM206.767 86.188h-51.894v51.52h51.894v-51.52z" fill="#40A8F5"/>
        <path d="M206.767 51.709h-51.894v17.24h51.894v-17.24z" fill="#FF5353"/>
        <path d="M206.767 17.238h-51.894v17.24h51.894v-17.24zM172.302 154.949h-17.429v51.899h17.429v-51.899z" fill="#FFDF3A"/>
        <path d="M137.648 154.949v34.66h-34.063v-17.334h17.027v-17.326h17.036z" fill="#FF5353"/>
        <path d="M137.64 86.188h-17.028v51.52h17.028v-51.52z" fill="#FFDF3A"/>
        <path d="M137.648 17.238v34.36H120.51V34.297h-17.13V17.238h34.268z" fill="#40A8F5"/>
        <path d="M120.612 51.6v17.35H86.155V34.598h17.122V51.6h17.335z" fill="#FFDF3A"/>
        <path d="M120.51 34.297v17.302h-17.233V34.596l.103-.3h17.13z" fill="#1A1A1A"/>
        <path d="M103.388 154.949H86.155v17.042h17.233v-17.042z" fill="#28F77E"/>
        <path d="M103.388 86.188H86.155v51.52h17.233v-51.52z" fill="#FF5353"/>
        <path d="M68.922 154.949v51.899h-51.69v-51.899h51.691zM68.922 86.188H51.69v51.52h17.233v-51.52z" fill="#40A8F5"/>
        <path d="M68.922 34.596v34.352H51.69v-51.71h17.114v17.358h.118zM34.465 86.188H17.233v51.52h17.232v-51.52z" fill="#FFDF3A"/>
        <path d="M34.465 17.238H17.233v51.71h17.232v-51.71z" fill="#FF5353"/>
    </g>
    <defs>
        <clipPath id="apqtuvm4ba">
            <path fill="#fff" d="M0 0h224v224H0z"/>
        </clipPath>
    </defs>
</svg>
