<svg width="2490" height="750" viewBox="0 0 2490 750" fill="none" xmlns="http://www.w3.org/2000/svg">
<rect width="2490" height="750" fill="white"/>
<path d="M1812.65 412.588H1787.96V437.279H1812.65V412.588Z" fill="#1A1A1A"/>
<path d="M1910.77 313.865V313.793H1862.07V338.484H1886.76V387.881H1837.36V363.19H1862.07V338.484H1837.36V363.19H1812.67V412.586H1823.6H1837.36H1886.76V437.278H1911.46V313.865H1910.77Z" fill="#1A1A1A"/>
<path d="M2010.24 338.484V313.793H1936.15V338.484H1960.84V412.586H1936.15V437.278H2010.24V412.586H1985.55V338.484H2010.24Z" fill="#1A1A1A"/>
<path d="M1195.23 363.19V338.484H1269.32V313.793H1195.23H1170.54V387.881H1195.23H1269.32V412.586H1294.02V363.19H1269.32H1195.23Z" fill="#1A1A1A"/>
<path d="M1268.72 412.588H1170.54V437.279H1268.72V412.588Z" fill="#1A1A1A"/>
<path d="M923.556 338.484H948.262V412.586H923.556V437.278H997.659V412.586H972.953V338.484H997.659V313.793H923.556V338.484Z" fill="#1A1A1A"/>
<path d="M1294.02 338.484H1343.42V437.278H1368.11V338.484H1418.08V313.793H1294.02V338.484Z" fill="#1A1A1A"/>
<path d="M1442.5 338.484H1467.05V412.586H1442.5V437.278H1516.3V412.586H1491.74V338.484H1516.3V313.793H1442.5V338.484Z" fill="#1A1A1A"/>
<path d="M1565.7 313.793H1540.99V412.586V436.676V437.278H1615.08V412.586H1565.7V313.793Z" fill="#1A1A1A"/>
<path d="M1664.48 313.793H1639.79V412.586V436.676V437.278H1713.88V412.586H1664.48V313.793Z" fill="#1A1A1A"/>
<path d="M1047.06 338.484V313.793H1022.35V338.484V363.19V437.278H1047.06V363.19H1071.75V338.484H1047.06Z" fill="#1A1A1A"/>
<path d="M1096.44 363.191H1071.75V387.883H1096.44V363.191Z" fill="#1A1A1A"/>
<path d="M1121.14 387.881H1096.44V412.586H1121.14V437.278H1145.83V412.586V387.881V313.793H1121.14V387.881Z" fill="#1A1A1A"/>
<g clip-path="url(#clip0_2501_174)">
<path d="M800.011 511.42V536.124H479V215H800.011V511.42ZM775.316 511.42V437.046H750.61V511.42H775.316ZM775.316 412.342V338.511H700.938V412.342H775.316ZM775.316 313.807V289.102H700.938V313.807H775.316ZM775.316 264.409V239.705H700.938V264.409H775.316ZM725.927 511.42V437.046H700.938V511.42H725.927ZM676.243 486.715V437.013H651.842V461.864H627.44V486.715H676.243ZM676.243 412.342V338.511H651.842V412.342H676.243ZM676.243 288.944V239.705H627.158V264.149L627.011 264.578H602.463V313.807H651.842V288.955L676.243 288.944ZM627.158 461.469V437.046H602.463V461.469H627.158ZM627.158 412.342V338.511H602.463V412.342H627.158ZM577.768 511.42V437.046H503.695V511.42H577.768ZM577.768 412.342V338.511H553.073V412.342H577.768ZM577.768 313.807V264.578H577.565V239.727H553.073V313.829L577.768 313.807ZM528.39 412.342V338.511H503.695V412.342H528.39ZM528.39 313.807V239.705H503.695V313.807H528.39Z" fill="#1A1A1A"/>
<path d="M775.305 437.047H750.61V511.42H775.305V437.047Z" fill="#40A8F5"/>
<path d="M775.305 338.51H700.938V412.341H775.305V338.51Z" fill="#40A8F5"/>
<path d="M775.305 289.102H700.938V313.806H775.305V289.102Z" fill="#FF5353"/>
<path d="M775.305 239.703H700.938V264.408H775.305V239.703Z" fill="#FFDF3A"/>
<path d="M725.915 437.047H700.938V511.42H725.915V437.047Z" fill="#FFDF3A"/>
<path d="M676.255 437.047V486.716H627.441V461.876H651.842V437.047H676.255Z" fill="#FF5353"/>
<path d="M676.243 338.51H651.842V412.341H676.243V338.51Z" fill="#FFDF3A"/>
<path d="M676.255 239.703V288.943H651.842H651.695V264.148H627.147V239.703H676.255Z" fill="#40A8F5"/>
<path d="M651.842 288.946V313.808H602.463V264.58H627V288.946H651.695H651.842Z" fill="#FFDF3A"/>
<path d="M651.695 264.148V288.943H627V264.578L627.147 264.148H651.695Z" fill="#1A1A1A"/>
<path d="M627.158 437.047H602.463V461.469H627.158V437.047Z" fill="#28F77E"/>
<path d="M627.158 338.51H602.463V412.341H627.158V338.51Z" fill="#FF5353"/>
<path d="M577.769 437.047V511.42H503.695V437.047H528.379H553.074H577.769Z" fill="#40A8F5"/>
<path d="M577.768 338.51H553.073V412.341H577.768V338.51Z" fill="#40A8F5"/>
<path d="M577.768 264.577V313.805H553.073V239.703H577.599V264.577H577.768Z" fill="#FFDF3A"/>
<path d="M528.39 338.51H503.695V412.341H528.39V338.51Z" fill="#FFDF3A"/>
<path d="M528.39 239.703H503.695V313.805H528.39V239.703Z" fill="#FF5353"/>
</g>
<defs>
<clipPath id="clip0_2501_174">
<rect width="321" height="321" fill="white" transform="translate(479 215)"/>
</clipPath>
</defs>
</svg>
